<?xml version="1.0" standalone="no"?>
<!DOCTYPE svg PUBLIC "-//W3C//DTD SVG 1.1//EN" "http://www.w3.org/Graphics/SVG/1.1/DTD/svg11.dtd"><svg t="1683004295609"
    class="icon" viewBox="0 0 1024 1024" version="1.1" xmlns="http://www.w3.org/2000/svg" p-id="3675"
    xmlns:xlink="http://www.w3.org/1999/xlink" width="200" height="200">
    <path d="M512 128a224 224 0 1 1 0 448 224 224 0 0 1 0-448z m0 64a160 160 0 1 0 0 320 160 160 0 0 0 0-320z"
        p-id="3676"></path>
    <path d="M512 512v64c-176.736 0-320 143.264-320 320H128c0-212.064 171.936-384 384-384z" p-id="3677">
    </path>
    <path
        d="M752 604.128a16 16 0 0 1 11.328 4.672l51.84 51.872a16 16 0 0 1 0 22.656l-51.84 51.84a16 16 0 0 1-27.328-11.296L735.968 704H528a16 16 0 0 1-16-16v-32a16 16 0 0 1 16-16H736v-19.872a16 16 0 0 1 16-16zM816 758.624a16 16 0 0 1 11.328 4.704l51.84 51.84a16 16 0 0 1 0 22.656l-51.84 51.872A16 16 0 0 1 800 878.4l-0.032-19.904H592a16 16 0 0 1-16-16v-32a16 16 0 0 1 16-16H800v-19.84a16 16 0 0 1 16-16z"
        p-id="3678"></path>
</svg>